<svg xmlns="http://www.w3.org/2000/svg" width="1280" height="1040" viewBox="0 0 1280 1040" role="img" aria-label="家計や保険を相談する会社員のイメージ">
  <defs>
    <linearGradient id="bg" x1="0" y1="0" x2="1" y2="1">
      <stop offset="0" stop-color="#f4fbf6"/>
      <stop offset="1" stop-color="#fff7dd"/>
    </linearGradient>
    <linearGradient id="desk" x1="0" y1="0" x2="1" y2="0">
      <stop offset="0" stop-color="#0f8a5f"/>
      <stop offset="1" stop-color="#77bd83"/>
    </linearGradient>
  </defs>
  <rect width="1280" height="1040" rx="38" fill="url(#bg)"/>
  <circle cx="1086" cy="166" r="114" fill="#ffe48b" opacity=".72"/>
  <circle cx="168" cy="808" r="190" fill="#dff5e9" opacity=".9"/>
  <rect x="126" y="124" width="1028" height="724" rx="28" fill="#fff" stroke="#d7e7df" stroke-width="4"/>
  <rect x="190" y="206" width="348" height="292" rx="20" fill="#eef8f2"/>
  <rect x="225" y="248" width="190" height="18" rx="9" fill="#b8dccb"/>
  <rect x="225" y="294" width="250" height="18" rx="9" fill="#cce8dc"/>
  <rect x="225" y="340" width="214" height="18" rx="9" fill="#cce8dc"/>
  <rect x="225" y="396" width="92" height="68" rx="12" fill="#0f8a5f"/>
  <rect x="337" y="376" width="92" height="88" rx="12" fill="#77bd83"/>
  <rect x="449" y="326" width="52" height="138" rx="12" fill="#f0c85a"/>
  <path d="M224 602c86-96 188-92 278-2" fill="none" stroke="#17352a" stroke-width="18" stroke-linecap="round"/>
  <circle cx="362" cy="516" r="84" fill="#f0c9ad"/>
  <path d="M286 510c10-92 62-136 128-112 38 14 62 48 68 112-48-36-126-40-196 0z" fill="#2b2926"/>
  <circle cx="332" cy="528" r="9" fill="#1d1b19"/>
  <circle cx="392" cy="528" r="9" fill="#1d1b19"/>
  <path d="M340 568c24 18 46 18 70 0" fill="none" stroke="#995e4b" stroke-width="8" stroke-linecap="round"/>
  <path d="M246 710c38-84 84-124 138-124s100 40 138 124v138H246V710z" fill="#17352a"/>
  <path d="M332 606l30 76 32-76" fill="#fff"/>
  <rect x="596" y="258" width="382" height="446" rx="18" fill="#f9fcfa" stroke="#d7e7df" stroke-width="4"/>
  <rect x="640" y="310" width="212" height="18" rx="9" fill="#b8dccb"/>
  <rect x="640" y="356" width="282" height="16" rx="8" fill="#dfece6"/>
  <rect x="640" y="392" width="248" height="16" rx="8" fill="#dfece6"/>
  <rect x="640" y="450" width="122" height="122" rx="20" fill="#e1f4e9"/>
  <path d="M674 518l42 42 76-88" fill="none" stroke="#0f8a5f" stroke-width="18" stroke-linecap="round" stroke-linejoin="round"/>
  <rect x="804" y="466" width="118" height="24" rx="12" fill="#f0c85a"/>
  <rect x="804" y="514" width="82" height="24" rx="12" fill="#dfece6"/>
  <rect x="640" y="618" width="282" height="20" rx="10" fill="#dfece6"/>
  <rect x="640" y="662" width="214" height="20" rx="10" fill="#dfece6"/>
  <rect x="158" y="828" width="964" height="74" rx="22" fill="url(#desk)"/>
  <rect x="620" y="772" width="210" height="96" rx="18" fill="#fff" stroke="#d7e7df" stroke-width="4"/>
  <path d="M654 832h142M654 802h92" stroke="#b8dccb" stroke-width="14" stroke-linecap="round"/>
  <text x="104" y="960" fill="#799089" font-family="Noto Sans JP, sans-serif" font-weight="700" font-size="26">ren-money.com</text>
</svg>
